<svg width="95" height="24" viewBox="0 0 95 24" fill="none" xmlns="http://www.w3.org/2000/svg">
<g clip-path="url(#clip_sailfish)">
<path fill-rule="evenodd" clip-rule="evenodd" d="M5 12a7 5 0 0 1 14 0a7 5 0 0 1-14 0z" fill="#2475FC"/>
<path d="M9 12L10.5 5L12 12H9z" fill="#2475FC"/>
<path d="M18.5 11.2L24 12L18.5 12.8V11.2z" fill="#2475FC"/>
<path d="M4 12l-2 3h1l1-2-1-1zm0 0l-2-3h1l1 2-1 1z" fill="#2475FC"/>
<circle cx="14" cy="10.2" r="2" fill="white"/>
<circle cx="14.2" cy="10" r="0.9" fill="#2475FC"/>
</g>
<text x="28" y="16" font-family="Arial, sans-serif" font-size="11" font-weight="700" fill="#2475FC">StartAI</text>
<defs>
<clipPath id="clip_sailfish">
<rect width="26" height="24" fill="white" x="0" y="0"/>
</clipPath>
</defs>
</svg>
